<svg xmlns="http://www.w3.org/2000/svg" viewBox="0 0 720 220" role="img" aria-label="Docked">
  <rect width="720" height="220" fill="#ffffff" />
  <g fill="#050505" stroke="#050505" stroke-linejoin="round">
    <path d="M88 78 28 108v52l60 30-18-54Z" />
    <path d="M252 78 312 108v52l-60 30 18-54Z" />
    <path d="M122 52h77c60 0 102 41 102 82s-42 82-102 82h-77V52Zm60 55v55h24c25 0 43-12 43-28s-18-27-43-27h-24Z" />
    <path d="M124 145 70 194h145l-55-49Z" />
    <path d="M169 94h38v20h-38Z" fill="#ffffff" stroke="#ffffff" />
    <path d="M171 122h34v23h-34Z" fill="#ffffff" stroke="#ffffff" />
  </g>
  <g fill="none" stroke="#050505" stroke-linecap="round" stroke-linejoin="round" stroke-width="12">
    <circle cx="190" cy="100" r="18" />
    <path d="M190 118v57" />
    <path d="M169 136h42" />
    <path d="M151 153c9 27 34 39 39 39s30-12 39-39" />
    <path d="M151 153l-9 23" />
    <path d="M229 153l9 23" />
  </g>
  <text x="342" y="148" fill="#050505" font-family="Arial Black, Arial, Helvetica, sans-serif" font-size="62" font-weight="900" letter-spacing="4">DOCKED</text>
</svg>
